<svg xmlns="http://www.w3.org/2000/svg" viewBox="0 0 6.64 8.6"><defs><style>.cls-1{fill:#1b4faa;}</style></defs><g id="Layer_2" data-name="Layer 2"><g id="Layer_1-2" data-name="Layer 1"><path class="cls-1" d="M3.44,4.52l-.26-.27a.9.9,0,0,0-.29-.16,1.14,1.14,0,0,0,.23-.15,2.72,2.72,0,0,0,.24-.24L6.64,0h-1a.73.73,0,0,0-.32.06.82.82,0,0,0-.25.22L2.21,3.52A.72.72,0,0,1,2,3.71a.9.9,0,0,1-.36.06H1.16V0H0V8.6H.24l.92-.87V4.66h.53l.24,0a.42.42,0,0,1,.17.05.41.41,0,0,1,.13.08l.13.13.79.91.79-.73Z"/></g></g></svg>